<mxfile host="drawio-plugin" modified="2021-05-11T08:12:49.161Z" agent="5.0 (Windows NT 6.2; Win64; x64) AppleWebKit/537.36 (KHTML, like Gecko) Chrome/87.0.4280.141 Safari/537.36" version="13.7.9" etag="QtBYJkXMCZoXf2N_iegV" type="embed"><diagram id="peEPHI6oyDbV8H_SGMcx" name="Page-1"><mxGraphModel dx="1050" dy="388" grid="1" gridSize="10" guides="1" tooltips="1" connect="1" arrows="1" fold="1" page="1" pageScale="1" pageWidth="850" pageHeight="1100" background="#ffffff" math="0" shadow="0"><root><mxCell id="0"/><mxCell id="1" parent="0"/><mxCell id="2" value="Component" style="swimlane;fontStyle=1;align=center;verticalAlign=top;childLayout=stackLayout;horizontal=1;startSize=26;horizontalStack=0;resizeParent=1;resizeParentMax=0;resizeLast=0;collapsible=1;marginBottom=0;fontColor=#000000;strokeColor=#0000CC;strokeWidth=2;fillColor=#FFFFFF;" vertex="1" parent="1"><mxGeometry x="270" y="80" width="160" height="164" as="geometry"/></mxCell><mxCell id="3" value="# _parent: Component" style="text;align=left;verticalAlign=top;spacingLeft=4;spacingRight=4;overflow=hidden;rotatable=0;points=[[0,0.5],[1,0.5]];portConstraint=eastwest;fontColor=#000000;strokeColor=#0000CC;strokeWidth=2;fillColor=#FFFFFF;" vertex="1" parent="2"><mxGeometry y="26" width="160" height="26" as="geometry"/></mxCell><mxCell id="4" value="" style="line;strokeWidth=2;align=left;verticalAlign=middle;spacingTop=-1;spacingLeft=3;spacingRight=3;rotatable=0;labelPosition=right;points=[];portConstraint=eastwest;fontColor=#000000;strokeColor=#0000CC;fillColor=#FFFFFF;" vertex="1" parent="2"><mxGeometry y="52" width="160" height="8" as="geometry"/></mxCell><mxCell id="5" value="+ add(Component)" style="text;align=left;verticalAlign=top;spacingLeft=4;spacingRight=4;overflow=hidden;rotatable=0;points=[[0,0.5],[1,0.5]];portConstraint=eastwest;fontColor=#000000;strokeColor=#0000CC;strokeWidth=2;fillColor=#FFFFFF;" vertex="1" parent="2"><mxGeometry y="60" width="160" height="26" as="geometry"/></mxCell><mxCell id="6" value="+ remove(Component)" style="text;align=left;verticalAlign=top;spacingLeft=4;spacingRight=4;overflow=hidden;rotatable=0;points=[[0,0.5],[1,0.5]];portConstraint=eastwest;fontColor=#000000;strokeColor=#0000CC;strokeWidth=2;fillColor=#FFFFFF;" vertex="1" parent="2"><mxGeometry y="86" width="160" height="26" as="geometry"/></mxCell><mxCell id="7" value="+ is_composite(): bool" style="text;align=left;verticalAlign=top;spacingLeft=4;spacingRight=4;overflow=hidden;rotatable=0;points=[[0,0.5],[1,0.5]];portConstraint=eastwest;fontColor=#000000;strokeColor=#0000CC;strokeWidth=2;fillColor=#FFFFFF;" vertex="1" parent="2"><mxGeometry y="112" width="160" height="26" as="geometry"/></mxCell><mxCell id="11" value="+ operation(): str" style="text;align=left;verticalAlign=top;spacingLeft=4;spacingRight=4;overflow=hidden;rotatable=0;points=[[0,0.5],[1,0.5]];portConstraint=eastwest;fontColor=#000000;strokeColor=#0000CC;strokeWidth=2;fillColor=#FFFFFF;" vertex="1" parent="2"><mxGeometry y="138" width="160" height="26" as="geometry"/></mxCell><mxCell id="12" value="Leaf" style="swimlane;fontStyle=1;align=center;verticalAlign=top;childLayout=stackLayout;horizontal=1;startSize=26;horizontalStack=0;resizeParent=1;resizeParentMax=0;resizeLast=0;collapsible=1;marginBottom=0;fontColor=#000000;strokeColor=#0000CC;strokeWidth=2;fillColor=#FFFFFF;" vertex="1" parent="1"><mxGeometry x="80" y="306" width="160" height="112" as="geometry"/></mxCell><mxCell id="13" value="..." style="text;align=left;verticalAlign=top;spacingLeft=4;spacingRight=4;overflow=hidden;rotatable=0;points=[[0,0.5],[1,0.5]];portConstraint=eastwest;fontColor=#000000;strokeColor=#0000CC;strokeWidth=2;fillColor=#FFFFFF;" vertex="1" parent="12"><mxGeometry y="26" width="160" height="26" as="geometry"/></mxCell><mxCell id="14" value="" style="line;strokeWidth=2;align=left;verticalAlign=middle;spacingTop=-1;spacingLeft=3;spacingRight=3;rotatable=0;labelPosition=right;points=[];portConstraint=eastwest;fontColor=#000000;strokeColor=#0000CC;fillColor=#FFFFFF;" vertex="1" parent="12"><mxGeometry y="52" width="160" height="8" as="geometry"/></mxCell><mxCell id="19" value="..." style="text;align=left;verticalAlign=top;spacingLeft=4;spacingRight=4;overflow=hidden;rotatable=0;points=[[0,0.5],[1,0.5]];portConstraint=eastwest;fontColor=#000000;strokeColor=#0000CC;strokeWidth=2;fillColor=#FFFFFF;" vertex="1" parent="12"><mxGeometry y="60" width="160" height="26" as="geometry"/></mxCell><mxCell id="18" value="+ operation(): str" style="text;align=left;verticalAlign=top;spacingLeft=4;spacingRight=4;overflow=hidden;rotatable=0;points=[[0,0.5],[1,0.5]];portConstraint=eastwest;fontColor=#000000;strokeColor=#0000CC;strokeWidth=2;fillColor=#FFFFFF;" vertex="1" parent="12"><mxGeometry y="86" width="160" height="26" as="geometry"/></mxCell><mxCell id="20" value="Composite" style="swimlane;fontStyle=1;align=center;verticalAlign=top;childLayout=stackLayout;horizontal=1;startSize=26;horizontalStack=0;resizeParent=1;resizeParentMax=0;resizeLast=0;collapsible=1;marginBottom=0;fontColor=#000000;strokeColor=#0000CC;strokeWidth=2;fillColor=#FFFFFF;" vertex="1" parent="1"><mxGeometry x="320" y="306" width="170" height="190" as="geometry"/></mxCell><mxCell id="21" value="..." style="text;align=left;verticalAlign=top;spacingLeft=4;spacingRight=4;overflow=hidden;rotatable=0;points=[[0,0.5],[1,0.5]];portConstraint=eastwest;fontColor=#000000;strokeColor=#0000CC;strokeWidth=2;fillColor=#FFFFFF;" vertex="1" parent="20"><mxGeometry y="26" width="170" height="26" as="geometry"/></mxCell><mxCell id="27" value="# _children: list[Component]" style="text;align=left;verticalAlign=top;spacingLeft=4;spacingRight=4;overflow=hidden;rotatable=0;points=[[0,0.5],[1,0.5]];portConstraint=eastwest;fontColor=#000000;strokeColor=#0000CC;strokeWidth=2;fillColor=#FFFFFF;" vertex="1" parent="20"><mxGeometry y="52" width="170" height="26" as="geometry"/></mxCell><mxCell id="22" value="" style="line;strokeWidth=2;align=left;verticalAlign=middle;spacingTop=-1;spacingLeft=3;spacingRight=3;rotatable=0;labelPosition=right;points=[];portConstraint=eastwest;fontColor=#000000;strokeColor=#0000CC;fillColor=#FFFFFF;" vertex="1" parent="20"><mxGeometry y="78" width="170" height="8" as="geometry"/></mxCell><mxCell id="23" value="+ add(Component)" style="text;align=left;verticalAlign=top;spacingLeft=4;spacingRight=4;overflow=hidden;rotatable=0;points=[[0,0.5],[1,0.5]];portConstraint=eastwest;fontColor=#000000;strokeColor=#0000CC;strokeWidth=2;fillColor=#FFFFFF;" vertex="1" parent="20"><mxGeometry y="86" width="170" height="26" as="geometry"/></mxCell><mxCell id="24" value="+ remove(Component)" style="text;align=left;verticalAlign=top;spacingLeft=4;spacingRight=4;overflow=hidden;rotatable=0;points=[[0,0.5],[1,0.5]];portConstraint=eastwest;fontColor=#000000;strokeColor=#0000CC;strokeWidth=2;fillColor=#FFFFFF;" vertex="1" parent="20"><mxGeometry y="112" width="170" height="26" as="geometry"/></mxCell><mxCell id="25" value="+ is_composite(): bool" style="text;align=left;verticalAlign=top;spacingLeft=4;spacingRight=4;overflow=hidden;rotatable=0;points=[[0,0.5],[1,0.5]];portConstraint=eastwest;fontColor=#000000;strokeColor=#0000CC;strokeWidth=2;fillColor=#FFFFFF;" vertex="1" parent="20"><mxGeometry y="138" width="170" height="26" as="geometry"/></mxCell><mxCell id="26" value="+ operation(): str" style="text;align=left;verticalAlign=top;spacingLeft=4;spacingRight=4;overflow=hidden;rotatable=0;points=[[0,0.5],[1,0.5]];portConstraint=eastwest;fontColor=#000000;strokeColor=#0000CC;strokeWidth=2;fillColor=#FFFFFF;" vertex="1" parent="20"><mxGeometry y="164" width="170" height="26" as="geometry"/></mxCell><mxCell id="28" value="Extends" style="endArrow=block;endSize=16;endFill=0;html=1;exitX=0.5;exitY=0;exitDx=0;exitDy=0;strokeWidth=2;strokeColor=#000099;entryX=0.25;entryY=1;entryDx=0;entryDy=0;fontSize=17;fontColor=#000000;labelBackgroundColor=none;" edge="1" parent="1" source="12" target="2"><mxGeometry x="-0.2141" y="23" width="160" relative="1" as="geometry"><mxPoint x="340" y="200" as="sourcePoint"/><mxPoint x="270" y="260" as="targetPoint"/><mxPoint as="offset"/></mxGeometry></mxCell><mxCell id="29" value="Extends" style="endArrow=block;endSize=16;endFill=0;html=1;exitX=0.5;exitY=0;exitDx=0;exitDy=0;strokeWidth=2;strokeColor=#000099;entryX=0.5;entryY=1;entryDx=0;entryDy=0;fontSize=17;fontColor=#000000;labelBackgroundColor=none;" edge="1" parent="1" source="20" target="2"><mxGeometry x="-0.2141" y="23" width="160" relative="1" as="geometry"><mxPoint x="170" y="316" as="sourcePoint"/><mxPoint x="320" y="254" as="targetPoint"/><mxPoint as="offset"/></mxGeometry></mxCell><mxCell id="31" value="1" style="endArrow=open;html=1;endSize=12;startArrow=diamondThin;startSize=14;startFill=0;edgeStyle=orthogonalEdgeStyle;align=left;verticalAlign=bottom;labelBackgroundColor=none;strokeColor=#000099;strokeWidth=2;fontSize=17;fontColor=#000000;exitX=1;exitY=0.5;exitDx=0;exitDy=0;entryX=0.994;entryY=0.073;entryDx=0;entryDy=0;entryPerimeter=0;" edge="1" parent="1" source="27" target="2"><mxGeometry x="-1" y="3" relative="1" as="geometry"><mxPoint x="550" y="280" as="sourcePoint"/><mxPoint x="620" y="130" as="targetPoint"/><Array as="points"><mxPoint x="530" y="371"/><mxPoint x="530" y="92"/></Array></mxGeometry></mxCell><mxCell id="33" value="0...*" style="text;html=1;align=center;verticalAlign=middle;resizable=0;points=[];autosize=1;fontSize=17;fontColor=#000000;" vertex="1" parent="1"><mxGeometry x="430" y="60" width="50" height="30" as="geometry"/></mxCell></root></mxGraphModel></diagram></mxfile>